<mxfile host="app.diagrams.net" modified="2024-02-28T09:40:48.142Z" agent="Mozilla/5.0 (X11; Linux x86_64) AppleWebKit/537.36 (KHTML, like Gecko) Chrome/122.0.0.0 Safari/537.36" etag="S-tM6HA5bBD5oA_RSeqc" version="23.1.7" type="github">
  <diagram name="Page-1" id="qE2w0ctg_I25AnyNORTq">
    <mxGraphModel dx="2261" dy="2065" grid="1" gridSize="10" guides="1" tooltips="1" connect="1" arrows="1" fold="1" page="1" pageScale="1" pageWidth="827" pageHeight="1169" math="0" shadow="0">
      <root>
        <mxCell id="0" />
        <mxCell id="1" parent="0" />
        <mxCell id="eFOK8hW6Pm20hGkAqfiE-2" value="" style="fontColor=#0066CC;verticalAlign=top;verticalLabelPosition=bottom;labelPosition=center;align=center;html=1;outlineConnect=0;fillColor=#CCCCCC;strokeColor=#6881B3;gradientColor=none;gradientDirection=north;strokeWidth=2;shape=mxgraph.networks.pc;" vertex="1" parent="1">
          <mxGeometry x="60" y="470" width="100" height="70" as="geometry" />
        </mxCell>
        <mxCell id="eFOK8hW6Pm20hGkAqfiE-3" value="" style="endArrow=none;html=1;rounded=0;" edge="1" parent="1">
          <mxGeometry width="50" height="50" relative="1" as="geometry">
            <mxPoint x="50" y="660" as="sourcePoint" />
            <mxPoint x="770" y="660" as="targetPoint" />
          </mxGeometry>
        </mxCell>
        <mxCell id="eFOK8hW6Pm20hGkAqfiE-4" value="Stockwerk 1" style="text;html=1;align=center;verticalAlign=middle;resizable=0;points=[];autosize=1;strokeColor=none;fillColor=none;" vertex="1" parent="1">
          <mxGeometry x="-35" y="598" width="90" height="30" as="geometry" />
        </mxCell>
        <mxCell id="eFOK8hW6Pm20hGkAqfiE-5" value="Parterre" style="text;html=1;align=center;verticalAlign=middle;resizable=0;points=[];autosize=1;strokeColor=none;fillColor=none;" vertex="1" parent="1">
          <mxGeometry x="-40" y="930" width="70" height="30" as="geometry" />
        </mxCell>
        <mxCell id="eFOK8hW6Pm20hGkAqfiE-6" value="" style="endArrow=none;html=1;rounded=0;" edge="1" parent="1">
          <mxGeometry width="50" height="50" relative="1" as="geometry">
            <mxPoint x="40" y="940" as="sourcePoint" />
            <mxPoint x="770" y="940" as="targetPoint" />
          </mxGeometry>
        </mxCell>
        <mxCell id="eFOK8hW6Pm20hGkAqfiE-7" value="" style="endArrow=none;html=1;rounded=0;" edge="1" parent="1">
          <mxGeometry width="50" height="50" relative="1" as="geometry">
            <mxPoint x="60" y="320" as="sourcePoint" />
            <mxPoint x="770" y="320" as="targetPoint" />
          </mxGeometry>
        </mxCell>
        <mxCell id="eFOK8hW6Pm20hGkAqfiE-8" value="Stockwerk 2" style="text;html=1;align=center;verticalAlign=middle;resizable=0;points=[];autosize=1;strokeColor=none;fillColor=none;" vertex="1" parent="1">
          <mxGeometry x="-30" y="310" width="90" height="30" as="geometry" />
        </mxCell>
        <mxCell id="eFOK8hW6Pm20hGkAqfiE-9" value="" style="fontColor=#0066CC;verticalAlign=top;verticalLabelPosition=bottom;labelPosition=center;align=center;html=1;outlineConnect=0;fillColor=#CCCCCC;strokeColor=#6881B3;gradientColor=none;gradientDirection=north;strokeWidth=2;shape=mxgraph.networks.pc;" vertex="1" parent="1">
          <mxGeometry x="70" y="200" width="100" height="70" as="geometry" />
        </mxCell>
        <mxCell id="eFOK8hW6Pm20hGkAqfiE-10" value="" style="fontColor=#0066CC;verticalAlign=top;verticalLabelPosition=bottom;labelPosition=center;align=center;html=1;outlineConnect=0;fillColor=#CCCCCC;strokeColor=#6881B3;gradientColor=none;gradientDirection=north;strokeWidth=2;shape=mxgraph.networks.pc;" vertex="1" parent="1">
          <mxGeometry x="70" y="780" width="100" height="70" as="geometry" />
        </mxCell>
        <mxCell id="eFOK8hW6Pm20hGkAqfiE-11" value="" style="fontColor=#0066CC;verticalAlign=top;verticalLabelPosition=bottom;labelPosition=center;align=center;html=1;outlineConnect=0;fillColor=#CCCCCC;strokeColor=#6881B3;gradientColor=none;gradientDirection=north;strokeWidth=2;shape=mxgraph.networks.pc;" vertex="1" parent="1">
          <mxGeometry x="650" y="200" width="100" height="70" as="geometry" />
        </mxCell>
        <mxCell id="eFOK8hW6Pm20hGkAqfiE-12" value="GeschÃ¤ftsleitung&amp;nbsp;" style="text;html=1;align=center;verticalAlign=middle;resizable=0;points=[];autosize=1;strokeColor=none;fillColor=none;" vertex="1" parent="1">
          <mxGeometry x="-40" y="220" width="120" height="30" as="geometry" />
        </mxCell>
        <mxCell id="eFOK8hW6Pm20hGkAqfiE-13" value="Lohnbuchhaltung" style="text;html=1;align=center;verticalAlign=middle;resizable=0;points=[];autosize=1;strokeColor=none;fillColor=none;" vertex="1" parent="1">
          <mxGeometry x="750" y="220" width="120" height="30" as="geometry" />
        </mxCell>
        <mxCell id="eFOK8hW6Pm20hGkAqfiE-14" value="" style="image;html=1;image=img/lib/clip_art/networking/Switch_128x128.png" vertex="1" parent="1">
          <mxGeometry x="220" y="30" width="110" height="110" as="geometry" />
        </mxCell>
        <mxCell id="eFOK8hW6Pm20hGkAqfiE-22" value="192.168.3.4-10" style="text;html=1;align=center;verticalAlign=middle;resizable=0;points=[];autosize=1;strokeColor=none;fillColor=none;" vertex="1" parent="1">
          <mxGeometry x="160" y="220" width="100" height="30" as="geometry" />
        </mxCell>
        <mxCell id="eFOK8hW6Pm20hGkAqfiE-23" value="192.168.3.11-25" style="text;html=1;align=center;verticalAlign=middle;resizable=0;points=[];autosize=1;strokeColor=none;fillColor=none;" vertex="1" parent="1">
          <mxGeometry x="545" y="218" width="110" height="30" as="geometry" />
        </mxCell>
        <mxCell id="eFOK8hW6Pm20hGkAqfiE-25" value="" style="endArrow=none;dashed=1;html=1;dashPattern=1 3;strokeWidth=2;rounded=0;" edge="1" parent="1">
          <mxGeometry width="50" height="50" relative="1" as="geometry">
            <mxPoint x="180" y="-70" as="sourcePoint" />
            <mxPoint x="250" y="-140" as="targetPoint" />
          </mxGeometry>
        </mxCell>
        <mxCell id="eFOK8hW6Pm20hGkAqfiE-26" value="" style="ellipse;shape=cloud;whiteSpace=wrap;html=1;" vertex="1" parent="1">
          <mxGeometry x="210" y="-220" width="120" height="80" as="geometry" />
        </mxCell>
        <mxCell id="eFOK8hW6Pm20hGkAqfiE-30" value="" style="endArrow=none;dashed=1;html=1;dashPattern=1 3;strokeWidth=2;rounded=0;exitX=0.678;exitY=0.044;exitDx=0;exitDy=0;exitPerimeter=0;" edge="1" parent="1">
          <mxGeometry width="50" height="50" relative="1" as="geometry">
            <mxPoint x="801.02" y="73.96000000000004" as="sourcePoint" />
            <mxPoint x="870" y="-100" as="targetPoint" />
          </mxGeometry>
        </mxCell>
        <mxCell id="eFOK8hW6Pm20hGkAqfiE-31" value="" style="ellipse;shape=cloud;whiteSpace=wrap;html=1;" vertex="1" parent="1">
          <mxGeometry x="827" y="-180" width="120" height="80" as="geometry" />
        </mxCell>
        <mxCell id="eFOK8hW6Pm20hGkAqfiE-33" value="" style="endArrow=none;dashed=1;html=1;dashPattern=1 3;strokeWidth=2;rounded=0;" edge="1" parent="1">
          <mxGeometry width="50" height="50" relative="1" as="geometry">
            <mxPoint x="160" y="-50" as="sourcePoint" />
            <mxPoint x="180" y="-70" as="targetPoint" />
          </mxGeometry>
        </mxCell>
        <mxCell id="eFOK8hW6Pm20hGkAqfiE-41" value="" style="endArrow=none;html=1;rounded=0;" edge="1" parent="1" source="eFOK8hW6Pm20hGkAqfiE-49">
          <mxGeometry width="50" height="50" relative="1" as="geometry">
            <mxPoint x="627" y="832" as="sourcePoint" />
            <mxPoint x="760" y="880" as="targetPoint" />
          </mxGeometry>
        </mxCell>
        <mxCell id="eFOK8hW6Pm20hGkAqfiE-42" value="" style="endArrow=none;dashed=1;html=1;dashPattern=1 3;strokeWidth=2;rounded=0;" edge="1" parent="1">
          <mxGeometry width="50" height="50" relative="1" as="geometry">
            <mxPoint x="820" y="870" as="sourcePoint" />
            <mxPoint x="910" y="790" as="targetPoint" />
          </mxGeometry>
        </mxCell>
        <mxCell id="eFOK8hW6Pm20hGkAqfiE-43" value="" style="ellipse;shape=cloud;whiteSpace=wrap;html=1;" vertex="1" parent="1">
          <mxGeometry x="860" y="710" width="120" height="80" as="geometry" />
        </mxCell>
        <mxCell id="eFOK8hW6Pm20hGkAqfiE-44" value="IT Spezialisten" style="text;html=1;align=center;verticalAlign=middle;resizable=0;points=[];autosize=1;strokeColor=none;fillColor=none;" vertex="1" parent="1">
          <mxGeometry x="-40" y="490" width="100" height="30" as="geometry" />
        </mxCell>
        <mxCell id="eFOK8hW6Pm20hGkAqfiE-45" value="Empfang" style="text;html=1;align=center;verticalAlign=middle;resizable=0;points=[];autosize=1;strokeColor=none;fillColor=none;" vertex="1" parent="1">
          <mxGeometry y="800" width="70" height="30" as="geometry" />
        </mxCell>
        <mxCell id="eFOK8hW6Pm20hGkAqfiE-46" value="" style="image;html=1;image=img/lib/clip_art/networking/Switch_128x128.png" vertex="1" parent="1">
          <mxGeometry x="250" y="400" width="130" height="120" as="geometry" />
        </mxCell>
        <mxCell id="eFOK8hW6Pm20hGkAqfiE-48" value="" style="endArrow=none;html=1;rounded=0;" edge="1" parent="1" source="eFOK8hW6Pm20hGkAqfiE-2">
          <mxGeometry width="50" height="50" relative="1" as="geometry">
            <mxPoint x="220" y="520" as="sourcePoint" />
            <mxPoint x="270" y="470" as="targetPoint" />
          </mxGeometry>
        </mxCell>
        <mxCell id="eFOK8hW6Pm20hGkAqfiE-49" value="" style="image;html=1;image=img/lib/clip_art/networking/Switch_128x128.png" vertex="1" parent="1">
          <mxGeometry x="275" y="720" width="115" height="100" as="geometry" />
        </mxCell>
        <mxCell id="eFOK8hW6Pm20hGkAqfiE-51" value="" style="endArrow=none;html=1;rounded=0;" edge="1" parent="1" source="eFOK8hW6Pm20hGkAqfiE-10">
          <mxGeometry width="50" height="50" relative="1" as="geometry">
            <mxPoint x="230" y="820" as="sourcePoint" />
            <mxPoint x="280" y="770" as="targetPoint" />
          </mxGeometry>
        </mxCell>
        <mxCell id="eFOK8hW6Pm20hGkAqfiE-52" value="Sondernetz GeschÃ¤ftsleitung" style="text;html=1;align=center;verticalAlign=middle;resizable=0;points=[];autosize=1;strokeColor=none;fillColor=none;" vertex="1" parent="1">
          <mxGeometry x="-90" y="-30" width="180" height="30" as="geometry" />
        </mxCell>
        <mxCell id="eFOK8hW6Pm20hGkAqfiE-53" value="Sondernetz Lohnbuchhaltung" style="text;html=1;align=center;verticalAlign=middle;resizable=0;points=[];autosize=1;strokeColor=none;fillColor=none;" vertex="1" parent="1">
          <mxGeometry x="800" y="70" width="180" height="30" as="geometry" />
        </mxCell>
        <mxCell id="eFOK8hW6Pm20hGkAqfiE-54" value="192.168.2.2-22" style="text;html=1;align=center;verticalAlign=middle;resizable=0;points=[];autosize=1;strokeColor=none;fillColor=none;" vertex="1" parent="1">
          <mxGeometry x="70" y="438" width="100" height="30" as="geometry" />
        </mxCell>
        <mxCell id="eFOK8hW6Pm20hGkAqfiE-55" value="192.168.1.2-22" style="text;html=1;align=center;verticalAlign=middle;resizable=0;points=[];autosize=1;strokeColor=none;fillColor=none;" vertex="1" parent="1">
          <mxGeometry x="80" y="740" width="100" height="30" as="geometry" />
        </mxCell>
        <mxCell id="eFOK8hW6Pm20hGkAqfiE-56" value="192.168.3.2" style="text;html=1;align=center;verticalAlign=middle;resizable=0;points=[];autosize=1;strokeColor=none;fillColor=none;" vertex="1" parent="1">
          <mxGeometry x="30" y="-70" width="90" height="30" as="geometry" />
        </mxCell>
        <mxCell id="eFOK8hW6Pm20hGkAqfiE-57" value="192.168.3.3" style="text;html=1;align=center;verticalAlign=middle;resizable=0;points=[];autosize=1;strokeColor=none;fillColor=none;" vertex="1" parent="1">
          <mxGeometry x="690" y="60" width="90" height="30" as="geometry" />
        </mxCell>
        <mxCell id="eFOK8hW6Pm20hGkAqfiE-58" value="" style="endArrow=none;html=1;rounded=0;" edge="1" parent="1">
          <mxGeometry width="50" height="50" relative="1" as="geometry">
            <mxPoint x="310" y="748" as="sourcePoint" />
            <mxPoint x="280.0044827586205" y="478" as="targetPoint" />
            <Array as="points">
              <mxPoint x="286.99" y="608" />
            </Array>
          </mxGeometry>
        </mxCell>
        <mxCell id="eFOK8hW6Pm20hGkAqfiE-59" value="" style="endArrow=none;html=1;rounded=0;" edge="1" parent="1">
          <mxGeometry width="50" height="50" relative="1" as="geometry">
            <mxPoint x="296.13" y="410" as="sourcePoint" />
            <mxPoint x="275.00323943661977" y="110" as="targetPoint" />
          </mxGeometry>
        </mxCell>
        <mxCell id="eFOK8hW6Pm20hGkAqfiE-60" value="" style="endArrow=none;html=1;rounded=0;" edge="1" parent="1">
          <mxGeometry width="50" height="50" relative="1" as="geometry">
            <mxPoint x="113.88" y="200" as="sourcePoint" />
            <mxPoint x="126.12489795918361" as="targetPoint" />
          </mxGeometry>
        </mxCell>
        <mxCell id="eFOK8hW6Pm20hGkAqfiE-61" value="" style="endArrow=none;html=1;rounded=0;entryX=0;entryY=0.5;entryDx=0;entryDy=0;" edge="1" parent="1" source="eFOK8hW6Pm20hGkAqfiE-11">
          <mxGeometry width="50" height="50" relative="1" as="geometry">
            <mxPoint x="710" y="230" as="sourcePoint" />
            <mxPoint x="740" y="115" as="targetPoint" />
          </mxGeometry>
        </mxCell>
        <mxCell id="eFOK8hW6Pm20hGkAqfiE-62" value="" style="endArrow=none;html=1;rounded=0;" edge="1" parent="1">
          <mxGeometry width="50" height="50" relative="1" as="geometry">
            <mxPoint x="235" y="60" as="sourcePoint" />
            <mxPoint x="160" as="targetPoint" />
            <Array as="points" />
          </mxGeometry>
        </mxCell>
        <mxCell id="eFOK8hW6Pm20hGkAqfiE-66" value="" style="image;html=1;image=img/lib/clip_art/networking/Switch_128x128.png" vertex="1" parent="1">
          <mxGeometry x="410" y="150" width="120" height="110" as="geometry" />
        </mxCell>
        <mxCell id="eFOK8hW6Pm20hGkAqfiE-67" value="" style="endArrow=none;html=1;rounded=0;" edge="1" parent="1" source="eFOK8hW6Pm20hGkAqfiE-46">
          <mxGeometry width="50" height="50" relative="1" as="geometry">
            <mxPoint x="380" y="420" as="sourcePoint" />
            <mxPoint x="419.3023255813955" y="220" as="targetPoint" />
          </mxGeometry>
        </mxCell>
        <mxCell id="eFOK8hW6Pm20hGkAqfiE-68" value="" style="endArrow=none;html=1;rounded=0;" edge="1" parent="1">
          <mxGeometry width="50" height="50" relative="1" as="geometry">
            <mxPoint x="500" y="200" as="sourcePoint" />
            <mxPoint x="740" y="128.42105263157873" as="targetPoint" />
          </mxGeometry>
        </mxCell>
        <mxCell id="eFOK8hW6Pm20hGkAqfiE-71" value="iNTRANET" style="text;html=1;align=center;verticalAlign=middle;resizable=0;points=[];autosize=1;strokeColor=none;fillColor=none;" vertex="1" parent="1">
          <mxGeometry x="950" y="708" width="80" height="30" as="geometry" />
        </mxCell>
        <mxCell id="eFOK8hW6Pm20hGkAqfiE-72" value="Switch" style="text;html=1;align=center;verticalAlign=middle;resizable=0;points=[];autosize=1;strokeColor=none;fillColor=none;" vertex="1" parent="1">
          <mxGeometry x="302.5" y="40" width="60" height="30" as="geometry" />
        </mxCell>
        <mxCell id="eFOK8hW6Pm20hGkAqfiE-73" value="Switch" style="text;html=1;align=center;verticalAlign=middle;resizable=0;points=[];autosize=1;strokeColor=none;fillColor=none;" vertex="1" parent="1">
          <mxGeometry x="410" y="140" width="60" height="30" as="geometry" />
        </mxCell>
        <mxCell id="eFOK8hW6Pm20hGkAqfiE-74" value="Switch" style="text;html=1;align=center;verticalAlign=middle;resizable=0;points=[];autosize=1;strokeColor=none;fillColor=none;" vertex="1" parent="1">
          <mxGeometry x="380" y="428" width="60" height="30" as="geometry" />
        </mxCell>
        <mxCell id="eFOK8hW6Pm20hGkAqfiE-75" value="Switch" style="text;html=1;align=center;verticalAlign=middle;resizable=0;points=[];autosize=1;strokeColor=none;fillColor=none;" vertex="1" parent="1">
          <mxGeometry x="370" y="728" width="60" height="30" as="geometry" />
        </mxCell>
        <mxCell id="eFOK8hW6Pm20hGkAqfiE-76" value="Router" style="text;html=1;align=center;verticalAlign=middle;resizable=0;points=[];autosize=1;strokeColor=none;fillColor=none;" vertex="1" parent="1">
          <mxGeometry x="840" y="888" width="60" height="30" as="geometry" />
        </mxCell>
        <mxCell id="eFOK8hW6Pm20hGkAqfiE-78" value="" style="image;html=1;image=img/lib/clip_art/networking/Router_Icon_128x128.png" vertex="1" parent="1">
          <mxGeometry x="110" y="-55" width="80" height="80" as="geometry" />
        </mxCell>
        <mxCell id="eFOK8hW6Pm20hGkAqfiE-79" value="" style="image;html=1;image=img/lib/clip_art/networking/Router_Icon_128x128.png" vertex="1" parent="1">
          <mxGeometry x="740" y="70" width="80" height="80" as="geometry" />
        </mxCell>
        <mxCell id="eFOK8hW6Pm20hGkAqfiE-80" value="" style="image;html=1;image=img/lib/clip_art/networking/Router_Icon_128x128.png" vertex="1" parent="1">
          <mxGeometry x="750" y="850" width="80" height="80" as="geometry" />
        </mxCell>
      </root>
    </mxGraphModel>
  </diagram>
</mxfile>
